# 3ds Max Wavefront OBJ Exporter v0.97b - (c)2007 guruware
# File Created: 16.12.2019 15:36:31

mtllib CageFloor.mtl

#
# object Boden
#

v  -35.4331 0.0000 -35.4331
v  -35.4331 2.7559 -35.4331
v  35.4331 2.7559 -35.4331
v  35.4331 0.0000 -35.4331
v  -35.4331 -0.0000 35.4331
v  35.4331 -0.0000 35.4331
v  35.4331 2.7559 35.4331
v  -35.4331 2.7559 35.4331
# 8 vertices

vn -0.5774 -0.5774 -0.5774
vn -0.5774 0.5774 -0.5774
vn 0.5774 0.5774 -0.5774
vn 0.5774 -0.5774 -0.5774
vn -0.5774 -0.5774 0.5774
vn 0.5774 -0.5774 0.5774
vn 0.5774 0.5774 0.5774
vn -0.5774 0.5774 0.5774
# 8 vertex normals

vt 0.4042 0.9800 0.0000
vt 0.4042 0.9666 -918.6820
vt 0.7481 0.9666 0.0000
vt 0.7481 0.9800 0.0000
vt 0.4042 0.6094 918.6820
vt 0.7481 0.6094 0.0000
vt 0.7481 0.6228 0.0000
vt 0.4042 0.6228 0.0000
vt 0.4042 0.2656 0.0000
vt 0.7481 0.2656 0.0000
vt 0.7614 0.9666 0.0000
vt 0.7614 0.6228 0.0000
vt 0.3909 0.9666 0.0000
vt 0.3909 0.6228 0.0000
# 14 texture coords

o Boden
g Boden
usemtl CageFloor
s off
f 1/1/1 2/2/2 3/3/3 4/4/4 
f 5/5/5 6/6/6 7/7/7 8/8/8 
f 1/9/1 4/10/4 6/6/6 5/5/5 
f 4/11/4 3/3/3 7/7/7 6/12/6 
f 3/3/3 2/2/2 8/8/8 7/7/7 
f 2/2/2 1/13/1 5/14/5 8/8/8 
# 6 polygons

